<svg width="81" height="36" viewBox="0 0 81 36" fill="none" xmlns="http://www.w3.org/2000/svg">
<g clip-path="url(#clip0_546_46)">
<rect width="81" height="36" fill="#9B111E"/>
<path d="M8.29883 4.32031L5.24219 16H2.22461L6.66797 1.78125H8.55273L8.29883 4.32031ZM10.7109 16L7.63477 4.32031L7.35156 1.78125H9.26562L13.748 16H10.7109ZM10.8184 10.6973V13.0703H4.40234V10.6973H10.8184ZM17.7031 7.78711V16H14.9688V5.43359H17.5469L17.7031 7.78711ZM20.1934 5.35547L20.1543 8.08008C20.0306 8.05404 19.8809 8.03451 19.7051 8.02148C19.5358 8.00846 19.3861 8.00195 19.2559 8.00195C18.9499 8.00195 18.6895 8.05078 18.4746 8.14844C18.2598 8.23958 18.0807 8.37956 17.9375 8.56836C17.8008 8.75065 17.6966 8.97852 17.625 9.25195C17.5534 9.52539 17.5111 9.83464 17.498 10.1797L16.9805 9.98438C16.9805 9.29427 17.0326 8.66276 17.1367 8.08984C17.2474 7.51042 17.4102 7.00911 17.625 6.58594C17.8398 6.15625 18.097 5.82422 18.3965 5.58984C18.7025 5.35547 19.0475 5.23828 19.4316 5.23828C19.5618 5.23828 19.6986 5.2513 19.8418 5.27734C19.9915 5.29688 20.1087 5.32292 20.1934 5.35547ZM26.6875 5.43359V7.49414H21.2969V5.43359H26.6875ZM22.5371 2.82617H25.2617V12.7773C25.2617 13.0638 25.291 13.2884 25.3496 13.4512C25.4082 13.6074 25.4961 13.7181 25.6133 13.7832C25.737 13.8418 25.8965 13.8711 26.0918 13.8711C26.235 13.8711 26.3652 13.8646 26.4824 13.8516C26.5996 13.832 26.6875 13.8125 26.7461 13.793V15.9316C26.5312 16.0163 26.3034 16.0814 26.0625 16.127C25.8281 16.1725 25.5482 16.1953 25.2227 16.1953C24.6758 16.1953 24.2005 16.0944 23.7969 15.8926C23.3997 15.6842 23.0905 15.349 22.8691 14.8867C22.6478 14.4245 22.5371 13.819 22.5371 13.0703V2.82617ZM30.877 1V16H28.1426V1H30.877ZM30.4863 10.3555L29.7441 10.375C29.7441 9.63281 29.819 8.94922 29.9688 8.32422C30.1185 7.69922 30.3398 7.1556 30.6328 6.69336C30.9323 6.23112 31.2904 5.87305 31.707 5.61914C32.1302 5.36523 32.5957 5.23828 33.1035 5.23828C33.5397 5.23828 33.9368 5.31315 34.2949 5.46289C34.653 5.61263 34.9622 5.84701 35.2227 6.16602C35.4896 6.48503 35.6947 6.9082 35.8379 7.43555C35.9811 7.95638 36.0527 8.58789 36.0527 9.33008V16H33.3086V9.31055C33.3086 8.85482 33.263 8.49674 33.1719 8.23633C33.0807 7.97591 32.944 7.79362 32.7617 7.68945C32.5794 7.57878 32.3516 7.52344 32.0781 7.52344C31.7852 7.52344 31.5345 7.59505 31.3262 7.73828C31.1243 7.88151 30.9616 8.08333 30.8379 8.34375C30.7142 8.59766 30.623 8.89714 30.5645 9.24219C30.5124 9.58724 30.4863 9.95833 30.4863 10.3555ZM43.1621 13.4609V5.43359H45.9062V16H43.3281L43.1621 13.4609ZM43.4746 11.2832L44.2363 11.2637C44.2363 11.9733 44.168 12.6309 44.0312 13.2363C43.8945 13.8353 43.6895 14.3561 43.416 14.7988C43.1491 15.2415 42.8073 15.5866 42.3906 15.834C41.9805 16.0749 41.4954 16.1953 40.9355 16.1953C40.5059 16.1953 40.1087 16.1237 39.7441 15.9805C39.3861 15.8307 39.0768 15.5996 38.8164 15.2871C38.556 14.9681 38.3509 14.5612 38.2012 14.0664C38.0579 13.5651 37.9863 12.9661 37.9863 12.2695V5.43359H40.7305V12.2891C40.7305 12.5755 40.7533 12.8229 40.7988 13.0312C40.8509 13.2331 40.9225 13.3991 41.0137 13.5293C41.1113 13.6595 41.222 13.7539 41.3457 13.8125C41.4694 13.8646 41.6094 13.8906 41.7656 13.8906C42.1953 13.8906 42.5339 13.7799 42.7812 13.5586C43.0352 13.3307 43.2142 13.0215 43.3184 12.6309C43.4225 12.2337 43.4746 11.7845 43.4746 11.2832ZM50.6328 7.78711V16H47.8984V5.43359H50.4766L50.6328 7.78711ZM53.123 5.35547L53.084 8.08008C52.9603 8.05404 52.8105 8.03451 52.6348 8.02148C52.4655 8.00846 52.3158 8.00195 52.1855 8.00195C51.8796 8.00195 51.6191 8.05078 51.4043 8.14844C51.1895 8.23958 51.0104 8.37956 50.8672 8.56836C50.7305 8.75065 50.6263 8.97852 50.5547 9.25195C50.4831 9.52539 50.4408 9.83464 50.4277 10.1797L49.9102 9.98438C49.9102 9.29427 49.9622 8.66276 50.0664 8.08984C50.1771 7.51042 50.3398 7.00911 50.5547 6.58594C50.7695 6.15625 51.0267 5.82422 51.3262 5.58984C51.6322 5.35547 51.9772 5.23828 52.3613 5.23828C52.4915 5.23828 52.6283 5.2513 52.7715 5.27734C52.9212 5.29688 53.0384 5.32292 53.123 5.35547Z" fill="white"/>
<path d="M3.16797 19.7812H5.67773L8.57812 29.5078L11.4688 19.7812H13.6855L9.64258 34H7.50391L3.16797 19.7812ZM2.15234 19.7812H4.54492L4.91602 29.1562V34H2.15234V19.7812ZM12.5918 19.7812H14.9941V34H12.2402V29.1562L12.5918 19.7812ZM21.8496 31.5684V26.6855C21.8496 26.3665 21.8105 26.1126 21.7324 25.9238C21.6608 25.735 21.5501 25.5983 21.4004 25.5137C21.2572 25.4225 21.0814 25.377 20.873 25.377C20.6387 25.377 20.4434 25.4258 20.2871 25.5234C20.1309 25.6211 20.0137 25.7611 19.9355 25.9434C19.8639 26.1257 19.8281 26.3438 19.8281 26.5977H17.084C17.084 26.1419 17.1719 25.7122 17.3477 25.3086C17.5234 24.8984 17.7806 24.5404 18.1191 24.2344C18.4642 23.9219 18.8743 23.6777 19.3496 23.502C19.8249 23.3262 20.3587 23.2383 20.9512 23.2383C21.6543 23.2383 22.2793 23.3587 22.8262 23.5996C23.373 23.834 23.806 24.2083 24.125 24.7227C24.444 25.237 24.6035 25.9043 24.6035 26.7246V31.4316C24.6035 32.0241 24.6328 32.5059 24.6914 32.877C24.7565 33.248 24.8509 33.5671 24.9746 33.834V34H22.2207C22.097 33.707 22.0026 33.3424 21.9375 32.9062C21.8789 32.4635 21.8496 32.0176 21.8496 31.5684ZM22.1816 27.5449L22.1914 29.1855H21.1855C20.9251 29.1855 20.6973 29.2279 20.502 29.3125C20.3132 29.3971 20.1536 29.5176 20.0234 29.6738C19.8932 29.8236 19.7956 29.9993 19.7305 30.2012C19.6719 30.403 19.6426 30.6178 19.6426 30.8457C19.6426 31.0996 19.6784 31.3145 19.75 31.4902C19.8216 31.666 19.929 31.7995 20.0723 31.8906C20.2155 31.9818 20.3848 32.0273 20.5801 32.0273C20.8796 32.0273 21.14 31.9655 21.3613 31.8418C21.5827 31.7181 21.7454 31.5684 21.8496 31.3926C21.9603 31.2168 21.9961 31.054 21.957 30.9043L22.582 31.9688C22.5039 32.2096 22.3965 32.4603 22.2598 32.7207C22.1296 32.9811 21.9635 33.222 21.7617 33.4434C21.5599 33.6647 21.3092 33.847 21.0098 33.9902C20.7168 34.127 20.3685 34.1953 19.9648 34.1953C19.3984 34.1953 18.8809 34.0651 18.4121 33.8047C17.9434 33.5443 17.5723 33.1797 17.2988 32.7109C17.0319 32.2422 16.8984 31.6855 16.8984 31.041C16.8984 30.5072 16.9831 30.0254 17.1523 29.5957C17.3281 29.1595 17.5885 28.7917 17.9336 28.4922C18.2786 28.1862 18.7148 27.9518 19.2422 27.7891C19.7695 27.6263 20.388 27.5449 21.0977 27.5449H22.1816ZM29.4961 19V34H26.752V19H29.4961ZM36.7715 31.4609V23.4336H39.5156V34H36.9375L36.7715 31.4609ZM37.084 29.2832L37.8457 29.2637C37.8457 29.9733 37.7773 30.6309 37.6406 31.2363C37.5039 31.8353 37.2988 32.3561 37.0254 32.7988C36.7585 33.2415 36.4167 33.5866 36 33.834C35.5898 34.0749 35.1048 34.1953 34.5449 34.1953C34.1152 34.1953 33.7181 34.1237 33.3535 33.9805C32.9954 33.8307 32.6862 33.5996 32.4258 33.2871C32.1654 32.9681 31.9603 32.5612 31.8105 32.0664C31.6673 31.5651 31.5957 30.9661 31.5957 30.2695V23.4336H34.3398V30.2891C34.3398 30.5755 34.3626 30.8229 34.4082 31.0312C34.4603 31.2331 34.5319 31.3991 34.623 31.5293C34.7207 31.6595 34.8314 31.7539 34.9551 31.8125C35.0788 31.8646 35.2188 31.8906 35.375 31.8906C35.8047 31.8906 36.1432 31.7799 36.3906 31.5586C36.6445 31.3307 36.8236 31.0215 36.9277 30.6309C37.0319 30.2337 37.084 29.7845 37.084 29.2832ZM44.2617 25.6211V34H41.5176V23.4336H44.0859L44.2617 25.6211ZM43.8809 28.3555L43.1191 28.375C43.1061 27.6328 43.1712 26.9492 43.3145 26.3242C43.4577 25.6992 43.6725 25.1556 43.959 24.6934C44.252 24.2311 44.6198 23.873 45.0625 23.6191C45.5117 23.3652 46.0293 23.2383 46.6152 23.2383C46.9928 23.2383 47.3444 23.3099 47.6699 23.4531C48.002 23.5898 48.2852 23.8079 48.5195 24.1074C48.7604 24.4004 48.946 24.7845 49.0762 25.2598C49.2064 25.7285 49.2715 26.2917 49.2715 26.9492V34H46.5469V27.2812C46.5469 26.8125 46.5013 26.4544 46.4102 26.207C46.319 25.9531 46.1888 25.7773 46.0195 25.6797C45.8503 25.5755 45.6419 25.5234 45.3945 25.5234C45.1341 25.5234 44.9062 25.5951 44.7109 25.7383C44.5156 25.8815 44.3561 26.0833 44.2324 26.3438C44.1152 26.5977 44.0241 26.8971 43.959 27.2422C43.9004 27.5872 43.8743 27.9583 43.8809 28.3555ZM49.0176 28.082L48.041 28.209C48.0215 27.5124 48.0801 26.8613 48.2168 26.2559C48.3535 25.6504 48.5651 25.123 48.8516 24.6738C49.138 24.2246 49.4961 23.873 49.9258 23.6191C50.362 23.3652 50.8665 23.2383 51.4395 23.2383C51.8691 23.2383 52.2598 23.3099 52.6113 23.4531C52.9629 23.5964 53.2624 23.8275 53.5098 24.1465C53.7637 24.459 53.9557 24.8724 54.0859 25.3867C54.2227 25.8945 54.291 26.5195 54.291 27.2617V34H51.5469V27.2715C51.5469 26.7962 51.5013 26.4316 51.4102 26.1777C51.3255 25.9238 51.1986 25.7513 51.0293 25.6602C50.86 25.569 50.6549 25.5234 50.4141 25.5234C50.1797 25.5234 49.9746 25.5885 49.7988 25.7188C49.6296 25.849 49.4863 26.0312 49.3691 26.2656C49.252 26.5 49.1641 26.7702 49.1055 27.0762C49.0469 27.3822 49.0176 27.7174 49.0176 28.082ZM59.2227 23.4336V34H56.4785V23.4336H59.2227ZM56.3516 20.6895C56.3516 20.2663 56.485 19.918 56.752 19.6445C57.0254 19.3711 57.3932 19.2344 57.8555 19.2344C58.3112 19.2344 58.6725 19.3711 58.9395 19.6445C59.2064 19.918 59.3398 20.2663 59.3398 20.6895C59.3398 21.1126 59.2064 21.4642 58.9395 21.7441C58.6725 22.0176 58.3112 22.1543 57.8555 22.1543C57.3932 22.1543 57.0254 22.0176 56.752 21.7441C56.485 21.4642 56.3516 21.1126 56.3516 20.6895ZM66.0488 31.5684V26.6855C66.0488 26.3665 66.0098 26.1126 65.9316 25.9238C65.86 25.735 65.7493 25.5983 65.5996 25.5137C65.4564 25.4225 65.2806 25.377 65.0723 25.377C64.8379 25.377 64.6426 25.4258 64.4863 25.5234C64.3301 25.6211 64.2129 25.7611 64.1348 25.9434C64.0632 26.1257 64.0273 26.3438 64.0273 26.5977H61.2832C61.2832 26.1419 61.3711 25.7122 61.5469 25.3086C61.7227 24.8984 61.9798 24.5404 62.3184 24.2344C62.6634 23.9219 63.0736 23.6777 63.5488 23.502C64.0241 23.3262 64.5579 23.2383 65.1504 23.2383C65.8535 23.2383 66.4785 23.3587 67.0254 23.5996C67.5723 23.834 68.0052 24.2083 68.3242 24.7227C68.6432 25.237 68.8027 25.9043 68.8027 26.7246V31.4316C68.8027 32.0241 68.832 32.5059 68.8906 32.877C68.9557 33.248 69.0501 33.5671 69.1738 33.834V34H66.4199C66.2962 33.707 66.2018 33.3424 66.1367 32.9062C66.0781 32.4635 66.0488 32.0176 66.0488 31.5684ZM66.3809 27.5449L66.3906 29.1855H65.3848C65.1243 29.1855 64.8965 29.2279 64.7012 29.3125C64.5124 29.3971 64.3529 29.5176 64.2227 29.6738C64.0924 29.8236 63.9948 29.9993 63.9297 30.2012C63.8711 30.403 63.8418 30.6178 63.8418 30.8457C63.8418 31.0996 63.8776 31.3145 63.9492 31.4902C64.0208 31.666 64.1283 31.7995 64.2715 31.8906C64.4147 31.9818 64.584 32.0273 64.7793 32.0273C65.0788 32.0273 65.3392 31.9655 65.5605 31.8418C65.7819 31.7181 65.9447 31.5684 66.0488 31.3926C66.1595 31.2168 66.1953 31.054 66.1562 30.9043L66.7812 31.9688C66.7031 32.2096 66.5957 32.4603 66.459 32.7207C66.3288 32.9811 66.1628 33.222 65.9609 33.4434C65.7591 33.6647 65.5085 33.847 65.209 33.9902C64.916 34.127 64.5677 34.1953 64.1641 34.1953C63.5977 34.1953 63.0801 34.0651 62.6113 33.8047C62.1426 33.5443 61.7715 33.1797 61.498 32.7109C61.2311 32.2422 61.0977 31.6855 61.0977 31.041C61.0977 30.5072 61.1823 30.0254 61.3516 29.5957C61.5273 29.1595 61.7878 28.7917 62.1328 28.4922C62.4779 28.1862 62.9141 27.9518 63.4414 27.7891C63.9688 27.6263 64.5872 27.5449 65.2969 27.5449H66.3809ZM73.5098 25.6895V34H70.7656V23.4336H73.3242L73.5098 25.6895ZM73.0996 28.3555L72.3672 28.375C72.3542 27.5807 72.429 26.8678 72.5918 26.2363C72.7611 25.6048 72.9987 25.0677 73.3047 24.625C73.6172 24.1758 73.9883 23.834 74.418 23.5996C74.8477 23.3587 75.3327 23.2383 75.873 23.2383C76.2832 23.2383 76.6576 23.3099 76.9961 23.4531C77.3411 23.5964 77.6374 23.8242 77.8848 24.1367C78.1322 24.4492 78.3242 24.8626 78.4609 25.377C78.5977 25.8913 78.666 26.526 78.666 27.2812V34H75.9219V27.2617C75.9219 26.806 75.8763 26.4544 75.7852 26.207C75.694 25.9531 75.5573 25.7773 75.375 25.6797C75.1992 25.5755 74.9714 25.5234 74.6914 25.5234C74.431 25.5234 74.1999 25.5951 73.998 25.7383C73.7962 25.8815 73.627 26.0833 73.4902 26.3438C73.36 26.5977 73.2591 26.8971 73.1875 27.2422C73.1224 27.5872 73.0931 27.9583 73.0996 28.3555Z" fill="white"/>
</g>
<defs>
<clipPath id="clip0_546_46">
<rect width="81" height="36" fill="white"/>
</clipPath>
</defs>
</svg>
