<svg width="512" height="512" viewBox="0 0 512 512" fill="none" xmlns="http://www.w3.org/2000/svg">
<g clip-path="url(#clip0_176_36)">
<rect width="512" height="512" fill="#9B111E"/>
<path d="M136.117 176.285L85.6826 369H35.8926L109.208 134.391H140.307L136.117 176.285ZM175.917 369L125.16 176.285L120.487 134.391H152.069L226.029 369H175.917ZM177.689 281.505V320.66H71.8252V281.505H177.689ZM265.185 134.391H306.596L354.452 294.879L402.147 134.391H438.725L372.016 369H336.728L265.185 134.391ZM248.427 134.391H287.904L294.027 289.078V369H248.427V134.391ZM420.678 134.391H460.316V369H414.877V289.078L420.678 134.391Z" fill="white"/>
</g>
<defs>
<clipPath id="clip0_176_36">
<rect width="512" height="512" fill="white"/>
</clipPath>
</defs>
</svg>
