<svg width="75" height="36" viewBox="0 0 75 36" fill="none" xmlns="http://www.w3.org/2000/svg">
<g clip-path="url(#clip0_546_46)">
<rect width="75" height="36" fill="#9B111E"/>
<path d="M8.46899 5.48828L5.71802 16H3.0022L7.00122 3.20312H8.69751L8.46899 5.48828ZM10.6399 16L7.87134 5.48828L7.61646 3.20312H9.33911L13.3733 16H10.6399ZM10.7366 11.2275V13.3633H4.96216V11.2275H10.7366ZM16.9329 8.6084V16H14.4719V6.49023H16.7922L16.9329 8.6084ZM19.1741 6.41992L19.1389 8.87207C19.0276 8.84863 18.8928 8.83105 18.7346 8.81934C18.5823 8.80762 18.4475 8.80176 18.3303 8.80176C18.0549 8.80176 17.8206 8.8457 17.6272 8.93359C17.4338 9.01562 17.2727 9.1416 17.1438 9.31152C17.0208 9.47559 16.927 9.68066 16.8625 9.92676C16.7981 10.1729 16.76 10.4512 16.7483 10.7617L16.2825 10.5859C16.2825 9.96484 16.3293 9.39648 16.4231 8.88086C16.5227 8.35938 16.6692 7.9082 16.8625 7.52734C17.0559 7.14062 17.2874 6.8418 17.5569 6.63086C17.8323 6.41992 18.1428 6.31445 18.4885 6.31445C18.6057 6.31445 18.7288 6.32617 18.8577 6.34961C18.9924 6.36719 19.0979 6.39063 19.1741 6.41992ZM25.0188 6.49023V8.34473H20.1672V6.49023H25.0188ZM21.2834 4.14355H23.7356V13.0996C23.7356 13.3574 23.762 13.5596 23.8147 13.7061C23.8674 13.8467 23.9465 13.9463 24.052 14.0049C24.1633 14.0576 24.3069 14.084 24.4827 14.084C24.6116 14.084 24.7288 14.0781 24.8342 14.0664C24.9397 14.0488 25.0188 14.0312 25.0715 14.0137V15.9385C24.8782 16.0146 24.6731 16.0732 24.4563 16.1143C24.2454 16.1553 23.9934 16.1758 23.7004 16.1758C23.2083 16.1758 22.7805 16.085 22.4172 15.9033C22.0598 15.7158 21.7815 15.4141 21.5823 14.998C21.3831 14.582 21.2834 14.0371 21.2834 13.3633V4.14355ZM28.7893 2.5V16H26.3284V2.5H28.7893ZM28.4377 10.9199L27.7698 10.9375C27.7698 10.2695 27.8372 9.6543 27.9719 9.0918C28.1067 8.5293 28.3059 8.04004 28.5696 7.62402C28.8391 7.20801 29.1614 6.88574 29.5364 6.65723C29.9172 6.42871 30.3362 6.31445 30.7932 6.31445C31.1858 6.31445 31.5432 6.38184 31.8655 6.5166C32.1877 6.65137 32.4661 6.8623 32.7004 7.14941C32.9407 7.43652 33.1252 7.81738 33.2542 8.29199C33.3831 8.76074 33.4475 9.3291 33.4475 9.99707V16H30.9778V9.97949C30.9778 9.56934 30.9368 9.24707 30.8547 9.0127C30.7727 8.77832 30.6497 8.61426 30.4856 8.52051C30.3215 8.4209 30.1165 8.37109 29.8704 8.37109C29.6067 8.37109 29.3811 8.43555 29.1936 8.56445C29.012 8.69336 28.8655 8.875 28.7542 9.10938C28.6428 9.33789 28.5608 9.60742 28.5081 9.91797C28.4612 10.2285 28.4377 10.5625 28.4377 10.9199ZM39.8459 13.7148V6.49023H42.3157V16H39.9954L39.8459 13.7148ZM40.1272 11.7549L40.8127 11.7373C40.8127 12.376 40.7512 12.9678 40.6282 13.5127C40.5051 14.0518 40.3206 14.5205 40.0745 14.9189C39.8342 15.3174 39.5266 15.6279 39.1516 15.8506C38.7825 16.0674 38.3459 16.1758 37.842 16.1758C37.4553 16.1758 37.0979 16.1113 36.7698 15.9824C36.4475 15.8477 36.1692 15.6396 35.9348 15.3584C35.7004 15.0713 35.5159 14.7051 35.3811 14.2598C35.2522 13.8086 35.1877 13.2695 35.1877 12.6426V6.49023H37.6575V12.6602C37.6575 12.918 37.678 13.1406 37.719 13.3281C37.7659 13.5098 37.8303 13.6592 37.9124 13.7764C38.0002 13.8936 38.0999 13.9785 38.2112 14.0312C38.3225 14.0781 38.4485 14.1016 38.5891 14.1016C38.9758 14.1016 39.2805 14.002 39.5032 13.8027C39.7317 13.5977 39.8928 13.3193 39.9866 12.9678C40.0803 12.6104 40.1272 12.2061 40.1272 11.7549ZM46.5696 8.6084V16H44.1086V6.49023H46.429L46.5696 8.6084ZM48.8108 6.41992L48.7756 8.87207C48.6643 8.84863 48.5295 8.83105 48.3713 8.81934C48.219 8.80762 48.0842 8.80176 47.967 8.80176C47.6917 8.80176 47.4573 8.8457 47.2639 8.93359C47.0706 9.01562 46.9094 9.1416 46.7805 9.31152C46.6575 9.47559 46.5637 9.68066 46.4993 9.92676C46.4348 10.1729 46.3967 10.4512 46.385 10.7617L45.9192 10.5859C45.9192 9.96484 45.9661 9.39648 46.0598 8.88086C46.1594 8.35938 46.3059 7.9082 46.4993 7.52734C46.6926 7.14062 46.9241 6.8418 47.1936 6.63086C47.469 6.41992 47.7795 6.31445 48.1252 6.31445C48.2424 6.31445 48.3655 6.32617 48.4944 6.34961C48.6292 6.36719 48.7346 6.39063 48.8108 6.41992Z" fill="white"/>
<path d="M3.95117 20.2031H6.20996L8.82031 28.957L11.4219 20.2031H13.417L9.77832 33H7.85352L3.95117 20.2031ZM3.03711 20.2031H5.19043L5.52441 28.6406V33H3.03711V20.2031ZM12.4326 20.2031H14.5947V33H12.1162V28.6406L12.4326 20.2031ZM20.7646 30.8115V26.417C20.7646 26.1299 20.7295 25.9014 20.6592 25.7314C20.5947 25.5615 20.4951 25.4385 20.3604 25.3623C20.2314 25.2803 20.0732 25.2393 19.8857 25.2393C19.6748 25.2393 19.499 25.2832 19.3584 25.3711C19.2178 25.459 19.1123 25.585 19.042 25.749C18.9775 25.9131 18.9453 26.1094 18.9453 26.3379H16.4756C16.4756 25.9277 16.5547 25.541 16.7129 25.1777C16.8711 24.8086 17.1025 24.4863 17.4072 24.2109C17.7178 23.9297 18.0869 23.71 18.5146 23.5518C18.9424 23.3936 19.4229 23.3145 19.9561 23.3145C20.5889 23.3145 21.1514 23.4229 21.6436 23.6396C22.1357 23.8506 22.5254 24.1875 22.8125 24.6504C23.0996 25.1133 23.2432 25.7139 23.2432 26.4521V30.6885C23.2432 31.2217 23.2695 31.6553 23.3223 31.9893C23.3809 32.3232 23.4658 32.6104 23.5771 32.8506V33H21.0986C20.9873 32.7363 20.9023 32.4082 20.8438 32.0156C20.791 31.6172 20.7646 31.2158 20.7646 30.8115ZM21.0635 27.1904L21.0723 28.667H20.167C19.9326 28.667 19.7275 28.7051 19.5518 28.7812C19.3818 28.8574 19.2383 28.9658 19.1211 29.1064C19.0039 29.2412 18.916 29.3994 18.8574 29.5811C18.8047 29.7627 18.7783 29.9561 18.7783 30.1611C18.7783 30.3896 18.8105 30.583 18.875 30.7412C18.9395 30.8994 19.0361 31.0195 19.165 31.1016C19.2939 31.1836 19.4463 31.2246 19.6221 31.2246C19.8916 31.2246 20.126 31.1689 20.3252 31.0576C20.5244 30.9463 20.6709 30.8115 20.7646 30.6533C20.8643 30.4951 20.8965 30.3486 20.8613 30.2139L21.4238 31.1719C21.3535 31.3887 21.2568 31.6143 21.1338 31.8486C21.0166 32.083 20.8672 32.2998 20.6855 32.499C20.5039 32.6982 20.2783 32.8623 20.0088 32.9912C19.7451 33.1143 19.4316 33.1758 19.0684 33.1758C18.5586 33.1758 18.0928 33.0586 17.6709 32.8242C17.249 32.5898 16.915 32.2617 16.6689 31.8398C16.4287 31.418 16.3086 30.917 16.3086 30.3369C16.3086 29.8564 16.3848 29.4229 16.5371 29.0361C16.6953 28.6436 16.9297 28.3125 17.2402 28.043C17.5508 27.7676 17.9434 27.5566 18.418 27.4102C18.8926 27.2637 19.4492 27.1904 20.0879 27.1904H21.0635ZM27.6465 19.5V33H25.1768V19.5H27.6465ZM34.1943 30.7148V23.4902H36.6641V33H34.3438L34.1943 30.7148ZM34.4756 28.7549L35.1611 28.7373C35.1611 29.376 35.0996 29.9678 34.9766 30.5127C34.8535 31.0518 34.6689 31.5205 34.4229 31.9189C34.1826 32.3174 33.875 32.6279 33.5 32.8506C33.1309 33.0674 32.6943 33.1758 32.1904 33.1758C31.8037 33.1758 31.4463 33.1113 31.1182 32.9824C30.7959 32.8477 30.5176 32.6396 30.2832 32.3584C30.0488 32.0713 29.8643 31.7051 29.7295 31.2598C29.6006 30.8086 29.5361 30.2695 29.5361 29.6426V23.4902H32.0059V29.6602C32.0059 29.918 32.0264 30.1406 32.0674 30.3281C32.1143 30.5098 32.1787 30.6592 32.2607 30.7764C32.3486 30.8936 32.4482 30.9785 32.5596 31.0312C32.6709 31.0781 32.7969 31.1016 32.9375 31.1016C33.3242 31.1016 33.6289 31.002 33.8516 30.8027C34.0801 30.5977 34.2412 30.3193 34.335 29.9678C34.4287 29.6104 34.4756 29.2061 34.4756 28.7549ZM40.9355 25.459V33H38.4658V23.4902H40.7773L40.9355 25.459ZM40.5928 27.9199L39.9072 27.9375C39.8955 27.2695 39.9541 26.6543 40.083 26.0918C40.2119 25.5293 40.4053 25.04 40.6631 24.624C40.9268 24.208 41.2578 23.8857 41.6562 23.6572C42.0605 23.4287 42.5264 23.3145 43.0537 23.3145C43.3936 23.3145 43.71 23.3789 44.0029 23.5078C44.3018 23.6309 44.5566 23.8271 44.7676 24.0967C44.9844 24.3604 45.1514 24.7061 45.2686 25.1338C45.3857 25.5557 45.4443 26.0625 45.4443 26.6543V33H42.9922V26.9531C42.9922 26.5312 42.9512 26.209 42.8691 25.9863C42.7871 25.7578 42.6699 25.5996 42.5176 25.5117C42.3652 25.418 42.1777 25.3711 41.9551 25.3711C41.7207 25.3711 41.5156 25.4355 41.3398 25.5645C41.1641 25.6934 41.0205 25.875 40.9092 26.1094C40.8037 26.3379 40.7217 26.6074 40.6631 26.918C40.6104 27.2285 40.5869 27.5625 40.5928 27.9199ZM45.2158 27.6738L44.3369 27.7881C44.3193 27.1611 44.3721 26.5752 44.4951 26.0303C44.6182 25.4854 44.8086 25.0107 45.0664 24.6064C45.3242 24.2021 45.6465 23.8857 46.0332 23.6572C46.4258 23.4287 46.8799 23.3145 47.3955 23.3145C47.7822 23.3145 48.1338 23.3789 48.4502 23.5078C48.7666 23.6367 49.0361 23.8447 49.2588 24.1318C49.4873 24.4131 49.6602 24.7852 49.7773 25.248C49.9004 25.7051 49.9619 26.2676 49.9619 26.9355V33H47.4922V26.9443C47.4922 26.5166 47.4512 26.1885 47.3691 25.96C47.293 25.7314 47.1787 25.5762 47.0264 25.4941C46.874 25.4121 46.6895 25.3711 46.4727 25.3711C46.2617 25.3711 46.0771 25.4297 45.9189 25.5469C45.7666 25.6641 45.6377 25.8281 45.5322 26.0391C45.4268 26.25 45.3477 26.4932 45.2949 26.7686C45.2422 27.0439 45.2158 27.3457 45.2158 27.6738ZM54.4004 23.4902V33H51.9307V23.4902H54.4004ZM51.8164 21.0205C51.8164 20.6396 51.9365 20.3262 52.1768 20.0801C52.4229 19.834 52.7539 19.7109 53.1699 19.7109C53.5801 19.7109 53.9053 19.834 54.1455 20.0801C54.3857 20.3262 54.5059 20.6396 54.5059 21.0205C54.5059 21.4014 54.3857 21.7178 54.1455 21.9697C53.9053 22.2158 53.5801 22.3389 53.1699 22.3389C52.7539 22.3389 52.4229 22.2158 52.1768 21.9697C51.9365 21.7178 51.8164 21.4014 51.8164 21.0205ZM60.5439 30.8115V26.417C60.5439 26.1299 60.5088 25.9014 60.4385 25.7314C60.374 25.5615 60.2744 25.4385 60.1396 25.3623C60.0107 25.2803 59.8525 25.2393 59.665 25.2393C59.4541 25.2393 59.2783 25.2832 59.1377 25.3711C58.9971 25.459 58.8916 25.585 58.8213 25.749C58.7568 25.9131 58.7246 26.1094 58.7246 26.3379H56.2549C56.2549 25.9277 56.334 25.541 56.4922 25.1777C56.6504 24.8086 56.8818 24.4863 57.1865 24.2109C57.4971 23.9297 57.8662 23.71 58.2939 23.5518C58.7217 23.3936 59.2021 23.3145 59.7354 23.3145C60.3682 23.3145 60.9307 23.4229 61.4229 23.6396C61.915 23.8506 62.3047 24.1875 62.5918 24.6504C62.8789 25.1133 63.0225 25.7139 63.0225 26.4521V30.6885C63.0225 31.2217 63.0488 31.6553 63.1016 31.9893C63.1602 32.3232 63.2451 32.6104 63.3564 32.8506V33H60.8779C60.7666 32.7363 60.6816 32.4082 60.623 32.0156C60.5703 31.6172 60.5439 31.2158 60.5439 30.8115ZM60.8428 27.1904L60.8516 28.667H59.9463C59.7119 28.667 59.5068 28.7051 59.3311 28.7812C59.1611 28.8574 59.0176 28.9658 58.9004 29.1064C58.7832 29.2412 58.6953 29.3994 58.6367 29.5811C58.584 29.7627 58.5576 29.9561 58.5576 30.1611C58.5576 30.3896 58.5898 30.583 58.6543 30.7412C58.7188 30.8994 58.8154 31.0195 58.9443 31.1016C59.0732 31.1836 59.2256 31.2246 59.4014 31.2246C59.6709 31.2246 59.9053 31.1689 60.1045 31.0576C60.3037 30.9463 60.4502 30.8115 60.5439 30.6533C60.6436 30.4951 60.6758 30.3486 60.6406 30.2139L61.2031 31.1719C61.1328 31.3887 61.0361 31.6143 60.9131 31.8486C60.7959 32.083 60.6465 32.2998 60.4648 32.499C60.2832 32.6982 60.0576 32.8623 59.7881 32.9912C59.5244 33.1143 59.2109 33.1758 58.8477 33.1758C58.3379 33.1758 57.8721 33.0586 57.4502 32.8242C57.0283 32.5898 56.6943 32.2617 56.4482 31.8398C56.208 31.418 56.0879 30.917 56.0879 30.3369C56.0879 29.8564 56.1641 29.4229 56.3164 29.0361C56.4746 28.6436 56.709 28.3125 57.0195 28.043C57.3301 27.7676 57.7227 27.5566 58.1973 27.4102C58.6719 27.2637 59.2285 27.1904 59.8672 27.1904H60.8428ZM67.2588 25.5205V33H64.7891V23.4902H67.0918L67.2588 25.5205ZM66.8896 27.9199L66.2305 27.9375C66.2188 27.2227 66.2861 26.5811 66.4326 26.0127C66.585 25.4443 66.7988 24.9609 67.0742 24.5625C67.3555 24.1582 67.6895 23.8506 68.0762 23.6396C68.4629 23.4229 68.8994 23.3145 69.3857 23.3145C69.7549 23.3145 70.0918 23.3789 70.3965 23.5078C70.707 23.6367 70.9736 23.8418 71.1963 24.123C71.4189 24.4043 71.5918 24.7764 71.7148 25.2393C71.8379 25.7021 71.8994 26.2734 71.8994 26.9531V33H69.4297V26.9355C69.4297 26.5254 69.3887 26.209 69.3066 25.9863C69.2246 25.7578 69.1016 25.5996 68.9375 25.5117C68.7793 25.418 68.5742 25.3711 68.3223 25.3711C68.0879 25.3711 67.8799 25.4355 67.6982 25.5645C67.5166 25.6934 67.3643 25.875 67.2412 26.1094C67.124 26.3379 67.0332 26.6074 66.9688 26.918C66.9102 27.2285 66.8838 27.5625 66.8896 27.9199Z" fill="white"/>
</g>
<defs>
<clipPath id="clip0_546_46">
<rect width="75" height="36" fill="white"/>
</clipPath>
</defs>
</svg>
